<svg data-v-423bf9ae="" xmlns="http://www.w3.org/2000/svg" viewBox="0 0 306.33335596417726 163" class="iconAbove"><!----><!----><!----><g data-v-423bf9ae="" id="d8107fc4-659d-4eea-9900-c554d8166dad" fill="black" transform="matrix(4.761904978157451,0,0,4.761904978157451,0.5714251327401314,102.33333057330714)"><path d="M7.53 12.60L9.38 12.60L5.58 2.10L3.68 2.10L-0.12 12.60L1.73 12.60L2.49 10.38L6.77 10.38ZM2.99 8.87L4.64 3.97L6.28 8.87ZM11.32 4.36C11.87 4.36 12.32 3.90 12.32 3.38C12.32 2.82 11.87 2.38 11.32 2.38C10.78 2.38 10.33 2.82 10.33 3.38C10.33 3.90 10.78 4.36 11.32 4.36ZM10.50 12.60L12.14 12.60L12.14 5.60L10.50 5.60ZM19.86 0.14L19.86 6.34C19.27 5.79 18.50 5.46 17.61 5.46C15.63 5.46 14.05 7.07 14.05 9.10C14.05 11.13 15.63 12.74 17.61 12.74C18.50 12.74 19.27 12.41 19.86 11.87L19.86 12.60L21.53 12.60L21.53 0.14ZM17.82 11.20C16.64 11.20 15.72 10.27 15.72 9.10C15.72 7.93 16.64 7.00 17.82 7.00C18.97 7.00 19.92 7.93 19.92 9.10C19.92 10.27 18.97 11.20 17.82 11.20ZM31.38 2.10L31.38 9.89L25.55 2.10L23.84 2.10L23.84 12.60L25.55 12.60L25.55 4.80L31.36 12.60L33.08 12.60L33.08 2.10ZM42.33 9.07C42.30 6.97 40.76 5.46 38.64 5.46C36.51 5.46 34.90 7.00 34.90 9.10C34.90 11.20 36.49 12.74 38.66 12.74C40.46 12.74 41.81 11.67 42.21 10.15L40.55 10.15C40.25 10.89 39.55 11.36 38.66 11.36C37.49 11.36 36.66 10.54 36.58 9.36L42.32 9.36ZM38.66 6.86C39.57 6.86 40.22 7.37 40.51 8.17L36.72 8.17C37.03 7.39 37.71 6.86 38.66 6.86ZM50.84 5.60L48.86 5.60L46.92 7.93L44.96 5.60L42.98 5.60L45.92 9.10L42.98 12.60L44.98 12.60L46.92 10.29L48.84 12.60L50.84 12.60L47.90 9.10ZM54.78 12.74C56.61 12.74 57.72 11.69 57.72 10.01L57.72 5.60L56.07 5.60L56.07 9.80C56.07 10.66 55.53 11.20 54.78 11.20C54.02 11.20 53.48 10.66 53.48 9.80L53.48 5.60L51.84 5.60L51.84 10.01C51.84 11.69 52.94 12.74 54.78 12.74ZM61.81 12.74C63.21 12.74 64.21 11.85 64.21 10.59C64.21 9.26 63.09 8.73 62.14 8.35C61.46 8.07 61.13 7.93 61.13 7.49C61.13 7.09 61.41 6.86 61.88 6.86C62.34 6.86 62.74 7.07 62.93 7.39L63.98 6.53C63.61 5.93 62.72 5.46 61.78 5.46C60.46 5.46 59.48 6.35 59.48 7.58C59.48 8.82 60.52 9.35 61.57 9.73C62.30 10.03 62.63 10.22 62.63 10.62C62.63 11.06 62.25 11.31 61.76 11.31C61.25 11.31 60.69 11.06 60.48 10.52L59.13 11.13C59.47 12.09 60.64 12.74 61.81 12.74Z"></path></g><!----><g data-v-423bf9ae="" id="961adb99-4893-4689-b855-7bd6fbc9822f" transform="matrix(1.233839979265303,0,0,1.233839979265303,91.83638759894004,-16.163620922483226)" stroke="none" fill="black"><path d="M55.476 13.529L37.581 31.424l6.55 24.444 8.792 2.333-.927-3.435-5.353-1.411-5.17-19.296 19.298 5.17 5.171 19.298-2.918-.806.928 3.434 4.625 1.265 17.895-17.896-6.552-24.446-24.444-6.549zM42.269 31.087l14.125-14.125 19.299 5.168-14.127 14.126-19.297-5.169zm40.77 12.518L68.911 57.73l-5.169-19.299 14.127-14.126 5.17 19.3z"></path><path d="M55.869 44.13l-8.842-2.401.928 3.435 5.401 1.479 5.171 19.298-19.297-5.17-5.17-19.297 2.894.756-.928-3.434-4.602-1.213-17.895 17.894 6.55 24.445 24.445 6.55 17.895-17.895-6.55-24.447zM16.961 56.395l14.127-14.127 5.171 19.298-14.127 14.126-5.171-19.297zm26.643 26.646L24.306 77.87l14.127-14.128 19.298 5.171-14.127 14.128z"></path></g><!----></svg>