<svg width="126" height="150" viewBox="0 0 126 150" fill="none" xmlns="http://www.w3.org/2000/svg">
<g clip-path="url(#clip0_18_2)">
<path d="M30.009 57.9668C30.009 57.9668 1.47074 32.8409 39.3332 42.7772C39.3332 42.7772 26.8991 5.96342 59.7518 0.556687C92.6045 -4.85004 92.3639 30.9078 92.3639 30.9078C92.3639 30.9078 129.321 47.9784 100.99 72.1591C100.99 72.1591 80.9352 77.3923 83.914 87.0857C86.8929 96.7791 85.7858 108.257 79.3121 114.96C72.8383 121.663 53.6965 159.398 14.707 117.266C-24.2825 75.1335 26.5916 63.4336 26.5916 63.4336L30.009 57.9668Z" fill="#E8505B"/>
<path d="M82.0128 15.566H43.7747C42.8886 15.566 42.1703 16.2833 42.1703 17.168V96.0662C42.1703 96.951 42.8886 97.6682 43.7747 97.6682H82.0128C82.8989 97.6682 83.6172 96.951 83.6172 96.0662V17.168C83.6172 16.2833 82.8989 15.566 82.0128 15.566Z" fill="#263238"/>
<path d="M70.1803 92.4617H54.2701C53.864 92.4617 53.5347 92.7905 53.5347 93.196C53.5347 93.6015 53.864 93.9302 54.2701 93.9302H70.1803C70.5865 93.9302 70.9157 93.6015 70.9157 93.196C70.9157 92.7905 70.5865 92.4617 70.1803 92.4617Z" fill="#C4C4C6"/>
<path d="M62.2921 18.6365H46.3818C45.9757 18.6365 45.6465 18.9653 45.6465 19.3708C45.6465 19.7763 45.9757 20.105 46.3818 20.105H62.2921C62.6982 20.105 63.0274 19.7763 63.0274 19.3708C63.0274 18.9653 62.6982 18.6365 62.2921 18.6365Z" fill="#C4C4C6"/>
<path d="M81.8109 18.6365H77.0926C76.7596 18.6365 76.4897 18.9061 76.4897 19.2386V19.24C76.4897 19.5725 76.7596 19.842 77.0926 19.842H81.8109C82.1439 19.842 82.4139 19.5725 82.4139 19.24V19.2386C82.4139 18.9061 82.1439 18.6365 81.8109 18.6365Z" fill="#C4C4C6"/>
<path d="M81.8109 20.1704H77.0926C76.7596 20.1704 76.4897 20.44 76.4897 20.7725V20.7738C76.4897 21.1063 76.7596 21.3759 77.0926 21.3759H81.8109C82.1439 21.3759 82.4139 21.1063 82.4139 20.7738V20.7725C82.4139 20.44 82.1439 20.1704 81.8109 20.1704Z" fill="#C4C4C6"/>
<path d="M81.8109 21.7043H77.0926C76.7596 21.7043 76.4897 21.9739 76.4897 22.3064V22.3078C76.4897 22.6403 76.7596 22.9098 77.0926 22.9098H81.8109C82.1439 22.9098 82.4139 22.6403 82.4139 22.3078V22.3064C82.4139 21.9739 82.1439 21.7043 81.8109 21.7043Z" fill="#C4C4C6"/>
<path d="M82.4139 46.1521V68.6841C82.4114 69.537 82.071 70.3543 81.467 70.9573C80.863 71.5604 80.0445 71.9003 79.1904 71.9028H72.1979L69.2565 76.7088L66.3151 71.9028H42.1703V42.9334H79.1904C80.0445 42.9359 80.863 43.2758 81.467 43.8789C82.071 44.4819 82.4114 45.2992 82.4139 46.1521Z" fill="#3B3945"/>
<path d="M80.5421 41.4796V64.0116C80.5396 64.8645 80.1992 65.6818 79.5952 66.2849C78.9912 66.8879 78.1727 67.2278 77.3186 67.2303H70.3261L67.3847 72.0363L64.4433 67.2303H31.3553C30.5011 67.2278 29.6826 66.8879 29.0786 66.2849C28.4747 65.6818 28.1342 64.8645 28.1318 64.0116V41.4796C28.1342 40.6267 28.4747 39.8095 29.0786 39.2064C29.6826 38.6033 30.5011 38.2634 31.3553 38.2609H77.3186C78.1727 38.2634 78.9912 38.6033 79.5952 39.2064C80.1992 39.8095 80.5396 40.6267 80.5421 41.4796Z" fill="white"/>
<path d="M126 150H105.945L102.736 144.393C87.0934 138.786 79.0714 124.635 78.697 117.293C78.3227 109.95 73.5897 106.346 73.5897 106.346L62.8937 97.6682C55.8076 89.3912 63.8296 86.3207 66.5036 86.4543C69.1776 86.5877 83.6172 96.0662 83.6172 96.0662V61.0787C89.9011 64.1371 91.5055 72.4368 98.0568 83.2503C104.608 94.0637 110.892 114.89 112.63 125.837C114.368 136.784 116.374 135.849 116.374 135.849L126 150Z" fill="#EFC090"/>
<path d="M96.7987 150C96.7987 150 98.0581 148.398 88.8328 141.857C79.6075 135.315 68.5105 113.822 67.0398 109.817C65.5691 105.812 61.411 107.013 61.411 107.013H48.4555C38.1606 103.142 46.9714 97.6682 46.9714 97.6682H62.8951L73.591 106.346C73.591 106.346 78.3227 109.95 78.6984 117.293C79.0741 124.635 87.0947 138.786 102.738 144.393L105.946 150H96.7987Z" fill="#F3B188"/>
<path d="M83.6172 67.3051L86.1575 94.8647L103.405 112.487C103.405 112.487 84.8205 96.8672 83.6172 96.0662V67.3051Z" fill="#F3B188"/>
<path d="M51.5546 49.7633L51.0198 55.1807C51.0007 55.376 50.9142 55.5587 50.7752 55.6974L45.601 60.8638C45.5199 60.9448 45.4233 61.0086 45.3169 61.0513C45.2105 61.0941 45.0965 61.1149 44.9819 61.1125C44.8672 61.1101 44.7542 61.0846 44.6497 61.0375C44.5452 60.9904 44.4513 60.9227 44.3736 60.8384L41.6649 57.8934C41.8872 57.833 42.0935 57.7246 42.2692 57.5757L51.5546 49.7633Z" fill="#ED9320"/>
<path d="M46.7869 45.5714L38.7315 52.3492L38.2301 46.6661C38.2108 46.4468 38.2775 46.2286 38.4162 46.0575C38.5549 45.8864 38.7547 45.7758 38.9735 45.749C41.2143 45.47 44.2279 45.482 46.7869 45.5714Z" fill="#FCD16E"/>
<path d="M51.8528 46.7315L51.5546 49.7633L42.2732 57.5757C42.0975 57.7246 41.8912 57.833 41.6689 57.8934L39.1567 55.1607C39.0298 55.0232 38.9523 54.8476 38.9361 54.6614L38.7315 52.3492L46.7869 45.5714C48.5798 45.6342 50.1495 45.7356 51.0653 45.8024C51.1787 45.81 51.2895 45.8404 51.3909 45.8916C51.4924 45.9428 51.5825 46.0139 51.656 46.1005C51.7294 46.1872 51.7847 46.2877 51.8185 46.3961C51.8523 46.5045 51.864 46.6185 51.8528 46.7315Z" fill="#F9D181"/>
<path d="M43.4992 50.2185L44.7186 52.2597L53.5374 44.5114L54.3463 45.5567L44.6932 54.5452L42.2839 51.2732L43.4992 50.2185Z" fill="#37B44A"/>
<path d="M75.4615 51.0769H54.3369V59.7544H75.4615V51.0769Z" fill="#EEEEEE"/>
<path d="M75.4615 59.0869H54.3369V59.7544H75.4615V59.0869Z" fill="#D5D5D5"/>
<path d="M71.9936 93.9394L72.3686 83.6269L63.6498 89.1581L61.3998 85.2206L70.5873 80.4394L61.3998 75.6581L63.6498 71.7206L72.3686 77.2519L71.9936 66.9394H76.4936L76.1186 77.2519L84.8373 71.7206L87.0873 75.6581L77.8998 80.4394L87.0873 85.2206L84.8373 89.1581L76.1186 83.6269L76.4936 93.9394H71.9936ZM71.9936 173.939L72.3686 163.627L63.6498 169.158L61.3998 165.221L70.5873 160.439L61.3998 155.658L63.6498 151.721L72.3686 157.252L71.9936 146.939H76.4936L76.1186 157.252L84.8373 151.721L87.0873 155.658L77.8998 160.439L87.0873 165.221L84.8373 169.158L76.1186 163.627L76.4936 173.939H71.9936ZM71.9936 253.939L72.3686 243.627L63.6498 249.158L61.3998 245.221L70.5873 240.439L61.3998 235.658L63.6498 231.721L72.3686 237.252L71.9936 226.939H76.4936L76.1186 237.252L84.8373 231.721L87.0873 235.658L77.8998 240.439L87.0873 245.221L84.8373 249.158L76.1186 243.627L76.4936 253.939H71.9936ZM71.9936 333.939L72.3686 323.627L63.6498 329.158L61.3998 325.221L70.5873 320.439L61.3998 315.658L63.6498 311.721L72.3686 317.252L71.9936 306.939H76.4936L76.1186 317.252L84.8373 311.721L87.0873 315.658L77.8998 320.439L87.0873 325.221L84.8373 329.158L76.1186 323.627L76.4936 333.939H71.9936Z" fill="#7C7B7B"/>
</g>
<defs>
<clipPath id="clip0_18_2">
<rect width="126" height="150" fill="white"/>
</clipPath>
</defs>
</svg>
